<?xml version="1.0" standalone="no"?>
<!DOCTYPE svg PUBLIC "-//W3C//DTD SVG 20010904//EN"
 "http://www.w3.org/TR/2001/REC-SVG-20010904/DTD/svg10.dtd">
<svg version="1.0" xmlns="http://www.w3.org/2000/svg"
 width="500.000000pt" height="500.000000pt" viewBox="0 0 500.000000 500.000000"
 preserveAspectRatio="xMidYMid meet">

<g transform="translate(0.000000,500.000000) scale(0.100000,-0.100000)"
fill="#000000" stroke="none">
<path d="M1270 2500 l0 -480 1170 0 1170 0 0 480 0 480 -1170 0 -1170 0 0
-480z m2310 0 l0 -450 -1140 0 -1140 0 0 450 0 450 1140 0 1140 0 0 -450z"/>
<path d="M1370 2500 l0 -390 390 0 390 0 0 390 0 390 -390 0 -390 0 0 -390z
m247 43 l68 -98 3 98 c2 77 6 97 17 97 12 0 15 -23 15 -130 0 -103 -3 -130
-14 -130 -7 0 -45 46 -85 101 l-71 102 0 -102 c0 -83 -3 -101 -15 -101 -13 0
-15 21 -15 130 0 107 3 130 15 130 7 0 45 -44 82 -97z m368 72 c18 -17 25 -35
25 -64 0 -54 -34 -81 -101 -81 l-49 0 0 -45 c0 -33 -4 -45 -15 -45 -13 0 -15
21 -15 130 l0 130 65 0 c57 0 69 -3 90 -25z"/>
<path d="M1860 2555 l0 -55 44 0 c50 0 76 19 76 54 0 34 -31 56 -78 56 l-42 0
0 -55z"/>
<path d="M2933 2629 c-69 -34 -94 -120 -53 -186 28 -47 62 -65 120 -65 77 0
124 40 137 116 l6 36 -77 0 c-74 0 -76 -1 -76 -25 0 -22 4 -25 38 -25 l37 -1
-24 -19 c-28 -24 -49 -25 -79 -4 -28 20 -31 83 -4 107 23 21 65 22 82 2 16
-19 90 -21 90 -2 0 34 -81 87 -132 87 -13 0 -42 -9 -65 -21z"/>
<path d="M2300 2511 l0 -131 70 0 c121 0 170 35 178 124 4 50 2 56 -31 92
l-35 39 -91 3 -91 4 0 -131z m151 49 c13 -7 19 -21 19 -45 0 -41 -22 -65 -61
-65 -29 0 -29 0 -29 60 0 58 1 60 26 60 14 0 34 -5 45 -10z"/>
<path d="M2666 2632 c-6 -10 -96 -242 -96 -248 0 -2 18 -4 39 -4 31 0 41 4 46
20 5 16 15 20 52 20 36 0 46 -4 50 -20 4 -16 14 -20 44 -20 22 0 39 3 39 7 0
4 -21 62 -47 130 l-48 123 -37 0 c-20 0 -39 -4 -42 -8z m64 -149 c0 -7 -12
-13 -26 -13 -20 0 -25 4 -20 16 3 9 9 28 13 42 l6 27 13 -30 c7 -16 13 -36 14
-42z"/>
<path d="M3203 2513 l-50 -128 36 -3 c27 -3 39 1 50 17 19 30 96 30 104 1 4
-16 14 -20 46 -20 l41 0 -26 68 c-14 37 -36 94 -49 127 -22 58 -24 60 -62 63
l-40 3 -50 -128z m106 -4 c14 -41 15 -39 -14 -39 -26 0 -29 9 -19 48 9 31 20
28 33 -9z"/>
</g>
</svg>
